<?xml version="1.0"?>
<!-- Generated by SVGo and Plotinum VG -->
<svg width="400pt" height="400pt" viewBox="0 0 400 400"
	xmlns="http://www.w3.org/2000/svg"
	xmlns:xlink="http://www.w3.org/1999/xlink">
<g transform="scale(1, -1) translate(0, -400)">
<path d="M0,0L400,0L400,400L0,400Z" style="fill:#FFFFFF" />
<text x="216.73" y="-3.9023" transform="scale(1, -1)"
	style="font-family:Liberation Serif;font-variant:normal;font-weight:normal;font-style:normal;font-size:12px">X</text>
<text x="66.089" y="-16.541" transform="scale(1, -1)"
	style="font-family:Liberation Serif;font-variant:normal;font-weight:normal;font-style:normal;font-size:10px">10</text>
<text x="213.13" y="-16.541" transform="scale(1, -1)"
	style="font-family:Liberation Serif;font-variant:normal;font-weight:normal;font-style:normal;font-size:10px">50</text>
<text x="360.17" y="-16.541" transform="scale(1, -1)"
	style="font-family:Liberation Serif;font-variant:normal;font-weight:normal;font-style:normal;font-size:10px">90</text>
<path d="M71.089,24.363L71.089,32.363" style="fill:none;stroke:#000000;stroke-width:0.5" />
<path d="M218.13,24.363L218.13,32.363" style="fill:none;stroke:#000000;stroke-width:0.5" />
<path d="M365.17,24.363L365.17,32.363" style="fill:none;stroke:#000000;stroke-width:0.5" />
<path d="M107.85,28.363L107.85,32.363" style="fill:none;stroke:#000000;stroke-width:0.5" />
<path d="M144.61,28.363L144.61,32.363" style="fill:none;stroke:#000000;stroke-width:0.5" />
<path d="M181.37,28.363L181.37,32.363" style="fill:none;stroke:#000000;stroke-width:0.5" />
<path d="M254.89,28.363L254.89,32.363" style="fill:none;stroke:#000000;stroke-width:0.5" />
<path d="M291.65,28.363L291.65,32.363" style="fill:none;stroke:#000000;stroke-width:0.5" />
<path d="M328.41,28.363L328.41,32.363" style="fill:none;stroke:#000000;stroke-width:0.5" />
<path d="M45.135,32.363L397,32.363" style="fill:none;stroke:#000000;stroke-width:0.5" />
<g transform="rotate(90)">
<text x="215.77" y="9.3867" transform="scale(1, -1)"
	style="font-family:Liberation Serif;font-variant:normal;font-weight:normal;font-style:normal;font-size:12px">Y</text>
</g>
<text x="15.885" y="-65.479" transform="scale(1, -1)"
	style="font-family:Liberation Serif;font-variant:normal;font-weight:normal;font-style:normal;font-size:10px">10</text>
<text x="15.885" y="-215.59" transform="scale(1, -1)"
	style="font-family:Liberation Serif;font-variant:normal;font-weight:normal;font-style:normal;font-size:10px">50</text>
<text x="15.885" y="-365.7" transform="scale(1, -1)"
	style="font-family:Liberation Serif;font-variant:normal;font-weight:normal;font-style:normal;font-size:10px">90</text>
<path d="M28.385,67.764L36.385,67.764" style="fill:none;stroke:#000000;stroke-width:0.5" />
<path d="M28.385,217.88L36.385,217.88" style="fill:none;stroke:#000000;stroke-width:0.5" />
<path d="M28.385,367.99L36.385,367.99" style="fill:none;stroke:#000000;stroke-width:0.5" />
<path d="M32.385,105.29L36.385,105.29" style="fill:none;stroke:#000000;stroke-width:0.5" />
<path d="M32.385,142.82L36.385,142.82" style="fill:none;stroke:#000000;stroke-width:0.5" />
<path d="M32.385,180.35L36.385,180.35" style="fill:none;stroke:#000000;stroke-width:0.5" />
<path d="M32.385,255.4L36.385,255.4" style="fill:none;stroke:#000000;stroke-width:0.5" />
<path d="M32.385,292.93L36.385,292.93" style="fill:none;stroke:#000000;stroke-width:0.5" />
<path d="M32.385,330.46L36.385,330.46" style="fill:none;stroke:#000000;stroke-width:0.5" />
<path d="M36.385,43.209L36.385,397" style="fill:none;stroke:#000000;stroke-width:0.5" />
<path d="M71.089,43.209L71.089,397" style="fill:none;stroke:#808080;stroke-width:0.25" />
<path d="M218.13,43.209L218.13,397" style="fill:none;stroke:#808080;stroke-width:0.25" />
<path d="M365.17,43.209L365.17,397" style="fill:none;stroke:#808080;stroke-width:0.25" />
<path d="M45.135,67.764L397,67.764" style="fill:none;stroke:#808080;stroke-width:0.25" />
<path d="M45.135,217.88L397,217.88" style="fill:none;stroke:#808080;stroke-width:0.25" />
<path d="M45.135,367.99L397,367.99" style="fill:none;stroke:#808080;stroke-width:0.25" />
<path d="M221.13,217.88A3,3 0 1 1 215.13,217.88A3,3 0 1 1 221.13,217.88Z" style="fill:none;stroke:#FF0080;stroke-width:0.5" />
<path d="M278.18,389.99A3,3 0 1 1 272.18,389.99A3,3 0 1 1 278.18,389.99Z" style="fill:none;stroke:#FF0080;stroke-width:0.5" />
<path d="M361.67,154.47A3,3 0 1 1 355.67,154.47A3,3 0 1 1 361.67,154.47Z" style="fill:none;stroke:#FF0080;stroke-width:0.5" />
<path d="M65.648,286.77A3,3 0 1 1 59.648,286.77A3,3 0 1 1 65.648,286.77Z" style="fill:none;stroke:#FF0080;stroke-width:0.5" />
<path d="M274.14,351.21A3,3 0 1 1 268.14,351.21A3,3 0 1 1 274.14,351.21Z" style="fill:none;stroke:#FF0080;stroke-width:0.5" />
<path d="M104.56,268.56A3,3 0 1 1 98.556,268.56A3,3 0 1 1 104.56,268.56Z" style="fill:none;stroke:#FF0080;stroke-width:0.5" />
<path d="M81.134,88.373A3,3 0 1 1 75.134,88.373A3,3 0 1 1 81.134,88.373Z" style="fill:none;stroke:#FF0080;stroke-width:0.5" />
<path d="M362.46,44.105A3,3 0 1 1 356.46,44.105A3,3 0 1 1 362.46,44.105Z" style="fill:none;stroke:#FF0080;stroke-width:0.5" />
<path d="M48.135,57.639A3,3 0 1 1 42.135,57.639A3,3 0 1 1 48.135,57.639Z" style="fill:none;stroke:#FF0080;stroke-width:0.5" />
<path d="M232.11,386.81A3,3 0 1 1 226.11,386.81A3,3 0 1 1 232.11,386.81Z" style="fill:none;stroke:#FF0080;stroke-width:0.5" />
<path d="M185.21,143.79A3,3 0 1 1 179.21,143.79A3,3 0 1 1 185.21,143.79Z" style="fill:none;stroke:#FF0080;stroke-width:0.5" />
<path d="M271.15,155.39A3,3 0 1 1 265.15,155.39A3,3 0 1 1 271.15,155.39Z" style="fill:none;stroke:#FF0080;stroke-width:0.5" />
<path d="M82.987,226A3,3 0 1 1 76.987,226A3,3 0 1 1 82.987,226Z" style="fill:none;stroke:#FF0080;stroke-width:0.5" />
<path d="M56.112,319.86A3,3 0 1 1 50.112,319.86A3,3 0 1 1 56.112,319.86Z" style="fill:none;stroke:#FF0080;stroke-width:0.5" />
<path d="M61.422,44.256A3,3 0 1 1 55.422,44.256A3,3 0 1 1 61.422,44.256Z" style="fill:none;stroke:#FF0080;stroke-width:0.5" />
<path d="M385.72,312.44A3,3 0 1 1 379.72,312.44A3,3 0 1 1 385.72,312.44Z" style="fill:none;stroke:#FF0080;stroke-width:0.5" />
<path d="M400,67.755A3,3 0 1 1 394,67.755A3,3 0 1 1 400,67.755Z" style="fill:none;stroke:#FF0080;stroke-width:0.5" />
<path d="M132.39,306.41A3,3 0 1 1 126.39,306.41A3,3 0 1 1 132.39,306.41Z" style="fill:none;stroke:#FF0080;stroke-width:0.5" />
<path d="M201.65,226.43A3,3 0 1 1 195.65,226.43A3,3 0 1 1 201.65,226.43Z" style="fill:none;stroke:#FF0080;stroke-width:0.5" />
<path d="M387.51,93.381A3,3 0 1 1 381.51,93.381A3,3 0 1 1 387.51,93.381Z" style="fill:none;stroke:#FF0080;stroke-width:0.5" />
<path d="M219.13,138.57A3,3 0 1 1 213.13,138.57A3,3 0 1 1 219.13,138.57Z" style="fill:none;stroke:#FF0080;stroke-width:0.5" />
<path d="M357.49,91.033A3,3 0 1 1 351.49,91.033A3,3 0 1 1 357.49,91.033Z" style="fill:none;stroke:#FF0080;stroke-width:0.5" />
<path d="M220.23,365.51A3,3 0 1 1 214.23,365.51A3,3 0 1 1 220.23,365.51Z" style="fill:none;stroke:#FF0080;stroke-width:0.5" />
<path d="M314.08,82.138A3,3 0 1 1 308.08,82.138A3,3 0 1 1 314.08,82.138Z" style="fill:none;stroke:#FF0080;stroke-width:0.5" />
<path d="M136.03,377.05A3,3 0 1 1 130.03,377.05A3,3 0 1 1 136.03,377.05Z" style="fill:none;stroke:#FF0080;stroke-width:0.5" />
<path d="M120.78,397A3,3 0 1 1 114.78,397A3,3 0 1 1 120.78,397Z" style="fill:none;stroke:#FF0080;stroke-width:0.5" />
<path d="M122.01,378.4A3,3 0 1 1 116.01,378.4A3,3 0 1 1 122.01,378.4Z" style="fill:none;stroke:#FF0080;stroke-width:0.5" />
<path d="M316.9,57.631A3,3 0 1 1 310.9,57.631A3,3 0 1 1 316.9,57.631Z" style="fill:none;stroke:#FF0080;stroke-width:0.5" />
<path d="M141.03,61.904A3,3 0 1 1 135.03,61.904A3,3 0 1 1 141.03,61.904Z" style="fill:none;stroke:#FF0080;stroke-width:0.5" />
<path d="M279.67,324.36A3,3 0 1 1 273.67,324.36A3,3 0 1 1 279.67,324.36Z" style="fill:none;stroke:#FF0080;stroke-width:0.5" />
<path d="M84.757,307.75A3,3 0 1 1 78.757,307.75A3,3 0 1 1 84.757,307.75Z" style="fill:none;stroke:#FF0080;stroke-width:0.5" />
<path d="M351.05,356.69A3,3 0 1 1 345.05,356.69A3,3 0 1 1 351.05,356.69Z" style="fill:none;stroke:#FF0080;stroke-width:0.5" />
<path d="M306.07,154.01A3,3 0 1 1 300.07,154.01A3,3 0 1 1 306.07,154.01Z" style="fill:none;stroke:#FF0080;stroke-width:0.5" />
<path d="M342.98,106.51A3,3 0 1 1 336.98,106.51A3,3 0 1 1 342.98,106.51Z" style="fill:none;stroke:#FF0080;stroke-width:0.5" />
<path d="M305.62,43.209A3,3 0 1 1 299.62,43.209A3,3 0 1 1 305.62,43.209Z" style="fill:none;stroke:#FF0080;stroke-width:0.5" />
<path d="M168.14,49.25A3,3 0 1 1 162.14,49.25A3,3 0 1 1 168.14,49.25Z" style="fill:none;stroke:#FF0080;stroke-width:0.5" />
<path d="M141.58,115.45A3,3 0 1 1 135.58,115.45A3,3 0 1 1 141.58,115.45Z" style="fill:none;stroke:#FF0080;stroke-width:0.5" />
<path d="M366.6,220.55A3,3 0 1 1 360.6,220.55A3,3 0 1 1 366.6,220.55Z" style="fill:none;stroke:#FF0080;stroke-width:0.5" />
<path d="M143.46,305.46A3,3 0 1 1 137.46,305.46A3,3 0 1 1 143.46,305.46Z" style="fill:none;stroke:#FF0080;stroke-width:0.5" />
<path d="M65.705,263.97A3,3 0 1 1 59.705,263.97A3,3 0 1 1 65.705,263.97Z" style="fill:none;stroke:#FF0080;stroke-width:0.5" />
<path d="M311,68.391A3,3 0 1 1 305,68.391A3,3 0 1 1 311,68.391Z" style="fill:none;stroke:#FF0080;stroke-width:0.5" />
<path d="M218.13,217.88L268.15,155.39" style="fill:none;stroke:#0000FF" />
<path d="M268.15,155.39L303.07,154.01" style="fill:none;stroke:#0000FF" />
<path d="M303.07,154.01L311.08,82.138" style="fill:none;stroke:#0000FF" />
<path d="M311.08,82.138L308,68.391" style="fill:none;stroke:#0000FF" />
<path d="M308,68.391L216.13,138.57" style="fill:none;stroke:#0000FF" />
<path d="M216.13,138.57L182.21,143.79" style="fill:none;stroke:#0000FF" />
<path d="M182.21,143.79L138.58,115.45" style="fill:none;stroke:#0000FF" />
<path d="M138.58,115.45L78.134,88.373" style="fill:none;stroke:#0000FF" />
<path d="M78.134,88.373L45.135,57.639" style="fill:none;stroke:#0000FF" />
<path d="M45.135,57.639L58.422,44.256" style="fill:none;stroke:#0000FF" />
<path d="M58.422,44.256L138.03,61.904" style="fill:none;stroke:#0000FF" />
<path d="M138.03,61.904L165.14,49.25" style="fill:none;stroke:#0000FF" />
<path d="M165.14,49.25L302.62,43.209" style="fill:none;stroke:#0000FF" />
<path d="M302.62,43.209L313.9,57.631" style="fill:none;stroke:#0000FF" />
<path d="M313.9,57.631L359.46,44.105" style="fill:none;stroke:#0000FF" />
<path d="M359.46,44.105L397,67.755" style="fill:none;stroke:#0000FF" />
<path d="M397,67.755L384.51,93.381" style="fill:none;stroke:#0000FF" />
<path d="M384.51,93.381L354.49,91.033" style="fill:none;stroke:#0000FF" />
<path d="M354.49,91.033L339.98,106.51" style="fill:none;stroke:#0000FF" />
<path d="M339.98,106.51L358.67,154.47" style="fill:none;stroke:#0000FF" />
<path d="M358.67,154.47L363.6,220.55" style="fill:none;stroke:#0000FF" />
<path d="M363.6,220.55L382.72,312.44" style="fill:none;stroke:#0000FF" />
<path d="M382.72,312.44L348.05,356.69" style="fill:none;stroke:#0000FF" />
<path d="M348.05,356.69L276.67,324.36" style="fill:none;stroke:#0000FF" />
<path d="M276.67,324.36L271.14,351.21" style="fill:none;stroke:#0000FF" />
<path d="M271.14,351.21L275.18,389.99" style="fill:none;stroke:#0000FF" />
<path d="M275.18,389.99L229.11,386.81" style="fill:none;stroke:#0000FF" />
<path d="M229.11,386.81L217.23,365.51" style="fill:none;stroke:#0000FF" />
<path d="M217.23,365.51L133.03,377.05" style="fill:none;stroke:#0000FF" />
<path d="M133.03,377.05L117.78,397" style="fill:none;stroke:#0000FF" />
<path d="M117.78,397L119.01,378.4" style="fill:none;stroke:#0000FF" />
<path d="M119.01,378.4L140.46,305.46" style="fill:none;stroke:#0000FF" />
<path d="M140.46,305.46L129.39,306.41" style="fill:none;stroke:#0000FF" />
<path d="M129.39,306.41L81.757,307.75" style="fill:none;stroke:#0000FF" />
<path d="M81.757,307.75L53.112,319.86" style="fill:none;stroke:#0000FF" />
<path d="M53.112,319.86L62.648,286.77" style="fill:none;stroke:#0000FF" />
<path d="M62.648,286.77L62.705,263.97" style="fill:none;stroke:#0000FF" />
<path d="M62.705,263.97L79.987,226" style="fill:none;stroke:#0000FF" />
<path d="M79.987,226L101.56,268.56" style="fill:none;stroke:#0000FF" />
<path d="M101.56,268.56L198.65,226.43" style="fill:none;stroke:#0000FF" />
<path d="M198.65,226.43L218.13,217.88" style="fill:none;stroke:#0000FF" />
</g>
</svg>
