<?xml version="1.0"?>
<!-- Generated by SVGo and Plotinum VG -->
<svg width="400pt" height="400pt" viewBox="0 0 400 400"
	xmlns="http://www.w3.org/2000/svg"
	xmlns:xlink="http://www.w3.org/1999/xlink">
<g transform="scale(1, -1) translate(0, -400)">
<path d="M0,0L400,0L400,400L0,400Z" style="fill:#FFFFFF" />
<text x="216.73" y="-3.9023" transform="scale(1, -1)"
	style="font-family:Liberation Serif;font-variant:normal;font-weight:normal;font-style:normal;font-size:12px">X</text>
<text x="67.3" y="-16.541" transform="scale(1, -1)"
	style="font-family:Liberation Serif;font-variant:normal;font-weight:normal;font-style:normal;font-size:10px">10</text>
<text x="219.67" y="-16.541" transform="scale(1, -1)"
	style="font-family:Liberation Serif;font-variant:normal;font-weight:normal;font-style:normal;font-size:10px">50</text>
<text x="372.03" y="-16.541" transform="scale(1, -1)"
	style="font-family:Liberation Serif;font-variant:normal;font-weight:normal;font-style:normal;font-size:10px">90</text>
<path d="M72.3,24.363L72.3,32.363" style="fill:none;stroke:#000000;stroke-width:0.5" />
<path d="M224.67,24.363L224.67,32.363" style="fill:none;stroke:#000000;stroke-width:0.5" />
<path d="M377.03,24.363L377.03,32.363" style="fill:none;stroke:#000000;stroke-width:0.5" />
<path d="M110.39,28.363L110.39,32.363" style="fill:none;stroke:#000000;stroke-width:0.5" />
<path d="M148.48,28.363L148.48,32.363" style="fill:none;stroke:#000000;stroke-width:0.5" />
<path d="M186.58,28.363L186.58,32.363" style="fill:none;stroke:#000000;stroke-width:0.5" />
<path d="M262.76,28.363L262.76,32.363" style="fill:none;stroke:#000000;stroke-width:0.5" />
<path d="M300.85,28.363L300.85,32.363" style="fill:none;stroke:#000000;stroke-width:0.5" />
<path d="M338.94,28.363L338.94,32.363" style="fill:none;stroke:#000000;stroke-width:0.5" />
<path d="M45.135,32.363L397,32.363" style="fill:none;stroke:#000000;stroke-width:0.5" />
<g transform="rotate(90)">
<text x="215.77" y="9.3867" transform="scale(1, -1)"
	style="font-family:Liberation Serif;font-variant:normal;font-weight:normal;font-style:normal;font-size:12px">Y</text>
</g>
<text x="15.885" y="-59.383" transform="scale(1, -1)"
	style="font-family:Liberation Serif;font-variant:normal;font-weight:normal;font-style:normal;font-size:10px">10</text>
<text x="15.885" y="-209.53" transform="scale(1, -1)"
	style="font-family:Liberation Serif;font-variant:normal;font-weight:normal;font-style:normal;font-size:10px">50</text>
<text x="15.885" y="-359.68" transform="scale(1, -1)"
	style="font-family:Liberation Serif;font-variant:normal;font-weight:normal;font-style:normal;font-size:10px">90</text>
<path d="M28.385,61.668L36.385,61.668" style="fill:none;stroke:#000000;stroke-width:0.5" />
<path d="M28.385,211.82L36.385,211.82" style="fill:none;stroke:#000000;stroke-width:0.5" />
<path d="M28.385,361.96L36.385,361.96" style="fill:none;stroke:#000000;stroke-width:0.5" />
<path d="M32.385,99.205L36.385,99.205" style="fill:none;stroke:#000000;stroke-width:0.5" />
<path d="M32.385,136.74L36.385,136.74" style="fill:none;stroke:#000000;stroke-width:0.5" />
<path d="M32.385,174.28L36.385,174.28" style="fill:none;stroke:#000000;stroke-width:0.5" />
<path d="M32.385,249.35L36.385,249.35" style="fill:none;stroke:#000000;stroke-width:0.5" />
<path d="M32.385,286.89L36.385,286.89" style="fill:none;stroke:#000000;stroke-width:0.5" />
<path d="M32.385,324.43L36.385,324.43" style="fill:none;stroke:#000000;stroke-width:0.5" />
<path d="M36.385,43.209L36.385,397" style="fill:none;stroke:#000000;stroke-width:0.5" />
<path d="M72.3,43.209L72.3,397" style="fill:none;stroke:#808080;stroke-width:0.25" />
<path d="M224.67,43.209L224.67,397" style="fill:none;stroke:#808080;stroke-width:0.25" />
<path d="M377.03,43.209L377.03,397" style="fill:none;stroke:#808080;stroke-width:0.25" />
<path d="M45.135,61.668L397,61.668" style="fill:none;stroke:#808080;stroke-width:0.25" />
<path d="M45.135,211.82L397,211.82" style="fill:none;stroke:#808080;stroke-width:0.25" />
<path d="M45.135,361.96L397,361.96" style="fill:none;stroke:#808080;stroke-width:0.25" />
<path d="M227.67,211.82A3,3 0 1 1 221.67,211.82A3,3 0 1 1 227.67,211.82Z" style="fill:none;stroke:#FF0080;stroke-width:0.5" />
<path d="M311.2,293.56A3,3 0 1 1 305.2,293.56A3,3 0 1 1 311.2,293.56Z" style="fill:none;stroke:#FF0080;stroke-width:0.5" />
<path d="M391.95,354.5A3,3 0 1 1 385.95,354.5A3,3 0 1 1 391.95,354.5Z" style="fill:none;stroke:#FF0080;stroke-width:0.5" />
<path d="M230.49,296.19A3,3 0 1 1 224.49,296.19A3,3 0 1 1 230.49,296.19Z" style="fill:none;stroke:#FF0080;stroke-width:0.5" />
<path d="M193.28,159.75A3,3 0 1 1 187.28,159.75A3,3 0 1 1 193.28,159.75Z" style="fill:none;stroke:#FF0080;stroke-width:0.5" />
<path d="M339.25,222.57A3,3 0 1 1 333.25,222.57A3,3 0 1 1 339.25,222.57Z" style="fill:none;stroke:#FF0080;stroke-width:0.5" />
<path d="M277.74,295.71A3,3 0 1 1 271.74,295.71A3,3 0 1 1 277.74,295.71Z" style="fill:none;stroke:#FF0080;stroke-width:0.5" />
<path d="M354.65,288.47A3,3 0 1 1 348.65,288.47A3,3 0 1 1 354.65,288.47Z" style="fill:none;stroke:#FF0080;stroke-width:0.5" />
<path d="M76.341,191.19A3,3 0 1 1 70.341,191.19A3,3 0 1 1 76.341,191.19Z" style="fill:none;stroke:#FF0080;stroke-width:0.5" />
<path d="M242.57,198.37A3,3 0 1 1 236.57,198.37A3,3 0 1 1 242.57,198.37Z" style="fill:none;stroke:#FF0080;stroke-width:0.5" />
<path d="M186.83,260.5A3,3 0 1 1 180.83,260.5A3,3 0 1 1 186.83,260.5Z" style="fill:none;stroke:#FF0080;stroke-width:0.5" />
<path d="M400,214.87A3,3 0 1 1 394,214.87A3,3 0 1 1 400,214.87Z" style="fill:none;stroke:#FF0080;stroke-width:0.5" />
<path d="M278.7,81.648A3,3 0 1 1 272.7,81.648A3,3 0 1 1 278.7,81.648Z" style="fill:none;stroke:#FF0080;stroke-width:0.5" />
<path d="M383.58,204.62A3,3 0 1 1 377.58,204.62A3,3 0 1 1 383.58,204.62Z" style="fill:none;stroke:#FF0080;stroke-width:0.5" />
<path d="M48.135,272.75A3,3 0 1 1 42.135,272.75A3,3 0 1 1 48.135,272.75Z" style="fill:none;stroke:#FF0080;stroke-width:0.5" />
<path d="M294.51,372.52A3,3 0 1 1 288.51,372.52A3,3 0 1 1 294.51,372.52Z" style="fill:none;stroke:#FF0080;stroke-width:0.5" />
<path d="M316.67,151.53A3,3 0 1 1 310.67,151.53A3,3 0 1 1 316.67,151.53Z" style="fill:none;stroke:#FF0080;stroke-width:0.5" />
<path d="M65.238,361.06A3,3 0 1 1 59.238,361.06A3,3 0 1 1 65.238,361.06Z" style="fill:none;stroke:#FF0080;stroke-width:0.5" />
<path d="M91.671,126.68A3,3 0 1 1 85.671,126.68A3,3 0 1 1 91.671,126.68Z" style="fill:none;stroke:#FF0080;stroke-width:0.5" />
<path d="M141.03,331.03A3,3 0 1 1 135.03,331.03A3,3 0 1 1 141.03,331.03Z" style="fill:none;stroke:#FF0080;stroke-width:0.5" />
<path d="M321.78,225.48A3,3 0 1 1 315.78,225.48A3,3 0 1 1 321.78,225.48Z" style="fill:none;stroke:#FF0080;stroke-width:0.5" />
<path d="M141.29,258.32A3,3 0 1 1 135.29,258.32A3,3 0 1 1 141.29,258.32Z" style="fill:none;stroke:#FF0080;stroke-width:0.5" />
<path d="M58.602,314.09A3,3 0 1 1 52.602,314.09A3,3 0 1 1 58.602,314.09Z" style="fill:none;stroke:#FF0080;stroke-width:0.5" />
<path d="M364.73,326.74A3,3 0 1 1 358.73,326.74A3,3 0 1 1 364.73,326.74Z" style="fill:none;stroke:#FF0080;stroke-width:0.5" />
<path d="M118.44,43.209A3,3 0 1 1 112.44,43.209A3,3 0 1 1 118.44,43.209Z" style="fill:none;stroke:#FF0080;stroke-width:0.5" />
<path d="M371.77,67.206A3,3 0 1 1 365.77,67.206A3,3 0 1 1 371.77,67.206Z" style="fill:none;stroke:#FF0080;stroke-width:0.5" />
<path d="M245.58,240.09A3,3 0 1 1 239.58,240.09A3,3 0 1 1 245.58,240.09Z" style="fill:none;stroke:#FF0080;stroke-width:0.5" />
<path d="M75.849,242.29A3,3 0 1 1 69.849,242.29A3,3 0 1 1 75.849,242.29Z" style="fill:none;stroke:#FF0080;stroke-width:0.5" />
<path d="M228.87,385.88A3,3 0 1 1 222.87,385.88A3,3 0 1 1 228.87,385.88Z" style="fill:none;stroke:#FF0080;stroke-width:0.5" />
<path d="M186.9,347.38A3,3 0 1 1 180.9,347.38A3,3 0 1 1 186.9,347.38Z" style="fill:none;stroke:#FF0080;stroke-width:0.5" />
<path d="M90.19,397A3,3 0 1 1 84.19,397A3,3 0 1 1 90.19,397Z" style="fill:none;stroke:#FF0080;stroke-width:0.5" />
<path d="M343.54,229.63A3,3 0 1 1 337.54,229.63A3,3 0 1 1 343.54,229.63Z" style="fill:none;stroke:#FF0080;stroke-width:0.5" />
<path d="M92.527,288.06A3,3 0 1 1 86.527,288.06A3,3 0 1 1 92.527,288.06Z" style="fill:none;stroke:#FF0080;stroke-width:0.5" />
<path d="M85.062,284.37A3,3 0 1 1 79.062,284.37A3,3 0 1 1 85.062,284.37Z" style="fill:none;stroke:#FF0080;stroke-width:0.5" />
<path d="M260.01,269.78A3,3 0 1 1 254.01,269.78A3,3 0 1 1 260.01,269.78Z" style="fill:none;stroke:#FF0080;stroke-width:0.5" />
<path d="M334.85,319.55A3,3 0 1 1 328.85,319.55A3,3 0 1 1 334.85,319.55Z" style="fill:none;stroke:#FF0080;stroke-width:0.5" />
<path d="M139.22,271.15A3,3 0 1 1 133.22,271.15A3,3 0 1 1 139.22,271.15Z" style="fill:none;stroke:#FF0080;stroke-width:0.5" />
<path d="M226.08,217.45A3,3 0 1 1 220.08,217.45A3,3 0 1 1 226.08,217.45Z" style="fill:none;stroke:#FF0080;stroke-width:0.5" />
<path d="M112.21,204.34A3,3 0 1 1 106.21,204.34A3,3 0 1 1 112.21,204.34Z" style="fill:none;stroke:#FF0080;stroke-width:0.5" />
<path d="M137.42,368.91A3,3 0 1 1 131.42,368.91A3,3 0 1 1 137.42,368.91Z" style="fill:none;stroke:#FF0080;stroke-width:0.5" />
<path d="M347.74,70.919A3,3 0 1 1 341.74,70.919A3,3 0 1 1 347.74,70.919Z" style="fill:none;stroke:#FF0080;stroke-width:0.5" />
<path d="M224.67,211.82L368.77,67.206" style="fill:none;stroke:#0000FF" />
<path d="M368.77,67.206L275.7,81.648" style="fill:none;stroke:#0000FF" />
<path d="M275.7,81.648L344.74,70.919" style="fill:none;stroke:#0000FF" />
<path d="M344.74,70.919L313.67,151.53" style="fill:none;stroke:#0000FF" />
<path d="M313.67,151.53L336.25,222.57" style="fill:none;stroke:#0000FF" />
<path d="M336.25,222.57L340.54,229.63" style="fill:none;stroke:#0000FF" />
<path d="M340.54,229.63L318.78,225.48" style="fill:none;stroke:#0000FF" />
<path d="M318.78,225.48L380.58,204.62" style="fill:none;stroke:#0000FF" />
<path d="M380.58,204.62L397,214.87" style="fill:none;stroke:#0000FF" />
<path d="M397,214.87L351.65,288.47" style="fill:none;stroke:#0000FF" />
<path d="M351.65,288.47L361.73,326.74" style="fill:none;stroke:#0000FF" />
<path d="M361.73,326.74L388.95,354.5" style="fill:none;stroke:#0000FF" />
<path d="M388.95,354.5L291.51,372.52" style="fill:none;stroke:#0000FF" />
<path d="M291.51,372.52L331.85,319.55" style="fill:none;stroke:#0000FF" />
<path d="M331.85,319.55L308.2,293.56" style="fill:none;stroke:#0000FF" />
<path d="M308.2,293.56L274.74,295.71" style="fill:none;stroke:#0000FF" />
<path d="M274.74,295.71L257.01,269.78" style="fill:none;stroke:#0000FF" />
<path d="M257.01,269.78L242.58,240.09" style="fill:none;stroke:#0000FF" />
<path d="M242.58,240.09L183.83,260.5" style="fill:none;stroke:#0000FF" />
<path d="M183.83,260.5L227.49,296.19" style="fill:none;stroke:#0000FF" />
<path d="M227.49,296.19L225.87,385.88" style="fill:none;stroke:#0000FF" />
<path d="M225.87,385.88L183.9,347.38" style="fill:none;stroke:#0000FF" />
<path d="M183.9,347.38L138.03,331.03" style="fill:none;stroke:#0000FF" />
<path d="M138.03,331.03L134.42,368.91" style="fill:none;stroke:#0000FF" />
<path d="M134.42,368.91L87.19,397" style="fill:none;stroke:#0000FF" />
<path d="M87.19,397L62.238,361.06" style="fill:none;stroke:#0000FF" />
<path d="M62.238,361.06L55.602,314.09" style="fill:none;stroke:#0000FF" />
<path d="M55.602,314.09L45.135,272.75" style="fill:none;stroke:#0000FF" />
<path d="M45.135,272.75L89.527,288.06" style="fill:none;stroke:#0000FF" />
<path d="M89.527,288.06L82.062,284.37" style="fill:none;stroke:#0000FF" />
<path d="M82.062,284.37L136.22,271.15" style="fill:none;stroke:#0000FF" />
<path d="M136.22,271.15L138.29,258.32" style="fill:none;stroke:#0000FF" />
<path d="M138.29,258.32L72.849,242.29" style="fill:none;stroke:#0000FF" />
<path d="M72.849,242.29L73.341,191.19" style="fill:none;stroke:#0000FF" />
<path d="M73.341,191.19L109.21,204.34" style="fill:none;stroke:#0000FF" />
<path d="M109.21,204.34L88.671,126.68" style="fill:none;stroke:#0000FF" />
<path d="M88.671,126.68L115.44,43.209" style="fill:none;stroke:#0000FF" />
<path d="M115.44,43.209L190.28,159.75" style="fill:none;stroke:#0000FF" />
<path d="M190.28,159.75L239.57,198.37" style="fill:none;stroke:#0000FF" />
<path d="M239.57,198.37L223.08,217.45" style="fill:none;stroke:#0000FF" />
<path d="M223.08,217.45L224.67,211.82" style="fill:none;stroke:#0000FF" />
</g>
</svg>
