<?xml version="1.0"?>
<!-- Generated by SVGo and Plotinum VG -->
<svg width="400pt" height="400pt" viewBox="0 0 400 400"
	xmlns="http://www.w3.org/2000/svg"
	xmlns:xlink="http://www.w3.org/1999/xlink">
<g transform="scale(1, -1) translate(0, -400)">
<path d="M0,0L400,0L400,400L0,400Z" style="fill:#FFFFFF" />
<text x="216.73" y="-3.9023" transform="scale(1, -1)"
	style="font-family:Liberation Serif;font-variant:normal;font-weight:normal;font-style:normal;font-size:12px">X</text>
<text x="69.954" y="-16.541" transform="scale(1, -1)"
	style="font-family:Liberation Serif;font-variant:normal;font-weight:normal;font-style:normal;font-size:10px">10</text>
<text x="216.52" y="-16.541" transform="scale(1, -1)"
	style="font-family:Liberation Serif;font-variant:normal;font-weight:normal;font-style:normal;font-size:10px">50</text>
<text x="363.09" y="-16.541" transform="scale(1, -1)"
	style="font-family:Liberation Serif;font-variant:normal;font-weight:normal;font-style:normal;font-size:10px">90</text>
<path d="M74.954,24.363L74.954,32.363" style="fill:none;stroke:#000000;stroke-width:0.5" />
<path d="M221.52,24.363L221.52,32.363" style="fill:none;stroke:#000000;stroke-width:0.5" />
<path d="M368.09,24.363L368.09,32.363" style="fill:none;stroke:#000000;stroke-width:0.5" />
<path d="M111.6,28.363L111.6,32.363" style="fill:none;stroke:#000000;stroke-width:0.5" />
<path d="M148.24,28.363L148.24,32.363" style="fill:none;stroke:#000000;stroke-width:0.5" />
<path d="M184.88,28.363L184.88,32.363" style="fill:none;stroke:#000000;stroke-width:0.5" />
<path d="M258.17,28.363L258.17,32.363" style="fill:none;stroke:#000000;stroke-width:0.5" />
<path d="M294.81,28.363L294.81,32.363" style="fill:none;stroke:#000000;stroke-width:0.5" />
<path d="M331.45,28.363L331.45,32.363" style="fill:none;stroke:#000000;stroke-width:0.5" />
<path d="M45.135,32.363L397,32.363" style="fill:none;stroke:#000000;stroke-width:0.5" />
<g transform="rotate(90)">
<text x="215.77" y="9.3867" transform="scale(1, -1)"
	style="font-family:Liberation Serif;font-variant:normal;font-weight:normal;font-style:normal;font-size:12px">Y</text>
</g>
<text x="15.885" y="-68.259" transform="scale(1, -1)"
	style="font-family:Liberation Serif;font-variant:normal;font-weight:normal;font-style:normal;font-size:10px">10</text>
<text x="15.885" y="-217.48" transform="scale(1, -1)"
	style="font-family:Liberation Serif;font-variant:normal;font-weight:normal;font-style:normal;font-size:10px">50</text>
<text x="15.885" y="-366.69" transform="scale(1, -1)"
	style="font-family:Liberation Serif;font-variant:normal;font-weight:normal;font-style:normal;font-size:10px">90</text>
<path d="M28.385,70.544L36.385,70.544" style="fill:none;stroke:#000000;stroke-width:0.5" />
<path d="M28.385,219.76L36.385,219.76" style="fill:none;stroke:#000000;stroke-width:0.5" />
<path d="M28.385,368.98L36.385,368.98" style="fill:none;stroke:#000000;stroke-width:0.5" />
<path d="M32.385,107.85L36.385,107.85" style="fill:none;stroke:#000000;stroke-width:0.5" />
<path d="M32.385,145.15L36.385,145.15" style="fill:none;stroke:#000000;stroke-width:0.5" />
<path d="M32.385,182.46L36.385,182.46" style="fill:none;stroke:#000000;stroke-width:0.5" />
<path d="M32.385,257.06L36.385,257.06" style="fill:none;stroke:#000000;stroke-width:0.5" />
<path d="M32.385,294.37L36.385,294.37" style="fill:none;stroke:#000000;stroke-width:0.5" />
<path d="M32.385,331.67L36.385,331.67" style="fill:none;stroke:#000000;stroke-width:0.5" />
<path d="M36.385,43.209L36.385,397" style="fill:none;stroke:#000000;stroke-width:0.5" />
<path d="M74.954,43.209L74.954,397" style="fill:none;stroke:#808080;stroke-width:0.25" />
<path d="M221.52,43.209L221.52,397" style="fill:none;stroke:#808080;stroke-width:0.25" />
<path d="M368.09,43.209L368.09,397" style="fill:none;stroke:#808080;stroke-width:0.25" />
<path d="M45.135,70.544L397,70.544" style="fill:none;stroke:#808080;stroke-width:0.25" />
<path d="M45.135,219.76L397,219.76" style="fill:none;stroke:#808080;stroke-width:0.25" />
<path d="M45.135,368.98L397,368.98" style="fill:none;stroke:#808080;stroke-width:0.25" />
<path d="M224.52,219.76A3,3 0 1 1 218.52,219.76A3,3 0 1 1 224.52,219.76Z" style="fill:none;stroke:#FF0080;stroke-width:0.5" />
<path d="M75.039,170.09A3,3 0 1 1 69.039,170.09A3,3 0 1 1 75.039,170.09Z" style="fill:none;stroke:#FF0080;stroke-width:0.5" />
<path d="M307.29,384.88A3,3 0 1 1 301.29,384.88A3,3 0 1 1 307.29,384.88Z" style="fill:none;stroke:#FF0080;stroke-width:0.5" />
<path d="M199.1,317.23A3,3 0 1 1 193.1,317.23A3,3 0 1 1 199.1,317.23Z" style="fill:none;stroke:#FF0080;stroke-width:0.5" />
<path d="M215.46,46.827A3,3 0 1 1 209.46,46.827A3,3 0 1 1 215.46,46.827Z" style="fill:none;stroke:#FF0080;stroke-width:0.5" />
<path d="M213.45,82.11A3,3 0 1 1 207.45,82.11A3,3 0 1 1 213.45,82.11Z" style="fill:none;stroke:#FF0080;stroke-width:0.5" />
<path d="M364.11,57.001A3,3 0 1 1 358.11,57.001A3,3 0 1 1 364.11,57.001Z" style="fill:none;stroke:#FF0080;stroke-width:0.5" />
<path d="M48.135,164.08A3,3 0 1 1 42.135,164.08A3,3 0 1 1 48.135,164.08Z" style="fill:none;stroke:#FF0080;stroke-width:0.5" />
<path d="M181.63,291.76A3,3 0 1 1 175.63,291.76A3,3 0 1 1 181.63,291.76Z" style="fill:none;stroke:#FF0080;stroke-width:0.5" />
<path d="M256.17,246.41A3,3 0 1 1 250.17,246.41A3,3 0 1 1 256.17,246.41Z" style="fill:none;stroke:#FF0080;stroke-width:0.5" />
<path d="M359.99,79.4A3,3 0 1 1 353.99,79.4A3,3 0 1 1 359.99,79.4Z" style="fill:none;stroke:#FF0080;stroke-width:0.5" />
<path d="M325.26,92.37A3,3 0 1 1 319.26,92.37A3,3 0 1 1 325.26,92.37Z" style="fill:none;stroke:#FF0080;stroke-width:0.5" />
<path d="M202,356.67A3,3 0 1 1 196,356.67A3,3 0 1 1 202,356.67Z" style="fill:none;stroke:#FF0080;stroke-width:0.5" />
<path d="M244.92,253.48A3,3 0 1 1 238.92,253.48A3,3 0 1 1 244.92,253.48Z" style="fill:none;stroke:#FF0080;stroke-width:0.5" />
<path d="M88.016,238.32A3,3 0 1 1 82.016,238.32A3,3 0 1 1 88.016,238.32Z" style="fill:none;stroke:#FF0080;stroke-width:0.5" />
<path d="M345.31,208.05A3,3 0 1 1 339.31,208.05A3,3 0 1 1 345.31,208.05Z" style="fill:none;stroke:#FF0080;stroke-width:0.5" />
<path d="M116.08,103.46A3,3 0 1 1 110.08,103.46A3,3 0 1 1 116.08,103.46Z" style="fill:none;stroke:#FF0080;stroke-width:0.5" />
<path d="M273.96,337.45A3,3 0 1 1 267.96,337.45A3,3 0 1 1 273.96,337.45Z" style="fill:none;stroke:#FF0080;stroke-width:0.5" />
<path d="M171.96,157.22A3,3 0 1 1 165.96,157.22A3,3 0 1 1 171.96,157.22Z" style="fill:none;stroke:#FF0080;stroke-width:0.5" />
<path d="M265.27,380.33A3,3 0 1 1 259.27,380.33A3,3 0 1 1 265.27,380.33Z" style="fill:none;stroke:#FF0080;stroke-width:0.5" />
<path d="M50.234,58.946A3,3 0 1 1 44.234,58.946A3,3 0 1 1 50.234,58.946Z" style="fill:none;stroke:#FF0080;stroke-width:0.5" />
<path d="M352.58,132.13A3,3 0 1 1 346.58,132.13A3,3 0 1 1 352.58,132.13Z" style="fill:none;stroke:#FF0080;stroke-width:0.5" />
<path d="M373.09,112.01A3,3 0 1 1 367.09,112.01A3,3 0 1 1 373.09,112.01Z" style="fill:none;stroke:#FF0080;stroke-width:0.5" />
<path d="M229.21,332.15A3,3 0 1 1 223.21,332.15A3,3 0 1 1 229.21,332.15Z" style="fill:none;stroke:#FF0080;stroke-width:0.5" />
<path d="M117.9,202.05A3,3 0 1 1 111.9,202.05A3,3 0 1 1 117.9,202.05Z" style="fill:none;stroke:#FF0080;stroke-width:0.5" />
<path d="M297.28,43.209A3,3 0 1 1 291.28,43.209A3,3 0 1 1 297.28,43.209Z" style="fill:none;stroke:#FF0080;stroke-width:0.5" />
<path d="M254.11,63.833A3,3 0 1 1 248.11,63.833A3,3 0 1 1 254.11,63.833Z" style="fill:none;stroke:#FF0080;stroke-width:0.5" />
<path d="M302.75,315.48A3,3 0 1 1 296.75,315.48A3,3 0 1 1 302.75,315.48Z" style="fill:none;stroke:#FF0080;stroke-width:0.5" />
<path d="M52.409,269.8A3,3 0 1 1 46.409,269.8A3,3 0 1 1 52.409,269.8Z" style="fill:none;stroke:#FF0080;stroke-width:0.5" />
<path d="M97.232,312.54A3,3 0 1 1 91.232,312.54A3,3 0 1 1 97.232,312.54Z" style="fill:none;stroke:#FF0080;stroke-width:0.5" />
<path d="M400,94.712A3,3 0 1 1 394,94.712A3,3 0 1 1 400,94.712Z" style="fill:none;stroke:#FF0080;stroke-width:0.5" />
<path d="M108.39,397A3,3 0 1 1 102.39,397A3,3 0 1 1 108.39,397Z" style="fill:none;stroke:#FF0080;stroke-width:0.5" />
<path d="M157.81,377.93A3,3 0 1 1 151.81,377.93A3,3 0 1 1 157.81,377.93Z" style="fill:none;stroke:#FF0080;stroke-width:0.5" />
<path d="M75.382,145.4A3,3 0 1 1 69.382,145.4A3,3 0 1 1 75.382,145.4Z" style="fill:none;stroke:#FF0080;stroke-width:0.5" />
<path d="M303.29,333.55A3,3 0 1 1 297.29,333.55A3,3 0 1 1 303.29,333.55Z" style="fill:none;stroke:#FF0080;stroke-width:0.5" />
<path d="M338.18,336.37A3,3 0 1 1 332.18,336.37A3,3 0 1 1 338.18,336.37Z" style="fill:none;stroke:#FF0080;stroke-width:0.5" />
<path d="M293.51,357.47A3,3 0 1 1 287.51,357.47A3,3 0 1 1 293.51,357.47Z" style="fill:none;stroke:#FF0080;stroke-width:0.5" />
<path d="M226.03,230.28A3,3 0 1 1 220.03,230.28A3,3 0 1 1 226.03,230.28Z" style="fill:none;stroke:#FF0080;stroke-width:0.5" />
<path d="M343.64,258.55A3,3 0 1 1 337.64,258.55A3,3 0 1 1 343.64,258.55Z" style="fill:none;stroke:#FF0080;stroke-width:0.5" />
<path d="M240.91,73.068A3,3 0 1 1 234.91,73.068A3,3 0 1 1 240.91,73.068Z" style="fill:none;stroke:#FF0080;stroke-width:0.5" />
<path d="M290.32,327.57A3,3 0 1 1 284.32,327.57A3,3 0 1 1 290.32,327.57Z" style="fill:none;stroke:#FF0080;stroke-width:0.5" />
<path d="M221.52,219.76L178.63,291.76" style="fill:none;stroke:#0000FF" />
<path d="M178.63,291.76L196.1,317.23" style="fill:none;stroke:#0000FF" />
<path d="M196.1,317.23L226.21,332.15" style="fill:none;stroke:#0000FF" />
<path d="M226.21,332.15L199,356.67" style="fill:none;stroke:#0000FF" />
<path d="M199,356.67L154.81,377.93" style="fill:none;stroke:#0000FF" />
<path d="M154.81,377.93L105.39,397" style="fill:none;stroke:#0000FF" />
<path d="M105.39,397L94.232,312.54" style="fill:none;stroke:#0000FF" />
<path d="M94.232,312.54L49.409,269.8" style="fill:none;stroke:#0000FF" />
<path d="M49.409,269.8L85.016,238.32" style="fill:none;stroke:#0000FF" />
<path d="M85.016,238.32L114.9,202.05" style="fill:none;stroke:#0000FF" />
<path d="M114.9,202.05L72.039,170.09" style="fill:none;stroke:#0000FF" />
<path d="M72.039,170.09L45.135,164.08" style="fill:none;stroke:#0000FF" />
<path d="M45.135,164.08L72.382,145.4" style="fill:none;stroke:#0000FF" />
<path d="M72.382,145.4L47.234,58.946" style="fill:none;stroke:#0000FF" />
<path d="M47.234,58.946L113.08,103.46" style="fill:none;stroke:#0000FF" />
<path d="M113.08,103.46L168.96,157.22" style="fill:none;stroke:#0000FF" />
<path d="M168.96,157.22L210.45,82.11" style="fill:none;stroke:#0000FF" />
<path d="M210.45,82.11L212.46,46.827" style="fill:none;stroke:#0000FF" />
<path d="M212.46,46.827L237.91,73.068" style="fill:none;stroke:#0000FF" />
<path d="M237.91,73.068L251.11,63.833" style="fill:none;stroke:#0000FF" />
<path d="M251.11,63.833L294.28,43.209" style="fill:none;stroke:#0000FF" />
<path d="M294.28,43.209L322.26,92.37" style="fill:none;stroke:#0000FF" />
<path d="M322.26,92.37L356.99,79.4" style="fill:none;stroke:#0000FF" />
<path d="M356.99,79.4L361.11,57.001" style="fill:none;stroke:#0000FF" />
<path d="M361.11,57.001L397,94.712" style="fill:none;stroke:#0000FF" />
<path d="M397,94.712L370.09,112.01" style="fill:none;stroke:#0000FF" />
<path d="M370.09,112.01L349.58,132.13" style="fill:none;stroke:#0000FF" />
<path d="M349.58,132.13L342.31,208.05" style="fill:none;stroke:#0000FF" />
<path d="M342.31,208.05L340.64,258.55" style="fill:none;stroke:#0000FF" />
<path d="M340.64,258.55L335.18,336.37" style="fill:none;stroke:#0000FF" />
<path d="M335.18,336.37L300.29,333.55" style="fill:none;stroke:#0000FF" />
<path d="M300.29,333.55L290.51,357.47" style="fill:none;stroke:#0000FF" />
<path d="M290.51,357.47L304.29,384.88" style="fill:none;stroke:#0000FF" />
<path d="M304.29,384.88L262.27,380.33" style="fill:none;stroke:#0000FF" />
<path d="M262.27,380.33L270.96,337.45" style="fill:none;stroke:#0000FF" />
<path d="M270.96,337.45L287.32,327.57" style="fill:none;stroke:#0000FF" />
<path d="M287.32,327.57L299.75,315.48" style="fill:none;stroke:#0000FF" />
<path d="M299.75,315.48L253.17,246.41" style="fill:none;stroke:#0000FF" />
<path d="M253.17,246.41L241.92,253.48" style="fill:none;stroke:#0000FF" />
<path d="M241.92,253.48L223.03,230.28" style="fill:none;stroke:#0000FF" />
<path d="M223.03,230.28L221.52,219.76" style="fill:none;stroke:#0000FF" />
</g>
</svg>
