<?xml version="1.0"?>
<!-- Generated by SVGo and Plotinum VG -->
<svg width="400pt" height="400pt" viewBox="0 0 400 400"
	xmlns="http://www.w3.org/2000/svg"
	xmlns:xlink="http://www.w3.org/1999/xlink">
<g transform="scale(1, -1) translate(0, -400)">
<path d="M0,0L400,0L400,400L0,400Z" style="fill:#FFFFFF" />
<text x="216.73" y="-3.9023" transform="scale(1, -1)"
	style="font-family:Liberation Serif;font-variant:normal;font-weight:normal;font-style:normal;font-size:12px">X</text>
<text x="68.066" y="-16.541" transform="scale(1, -1)"
	style="font-family:Liberation Serif;font-variant:normal;font-weight:normal;font-style:normal;font-size:10px">10</text>
<text x="216.1" y="-16.541" transform="scale(1, -1)"
	style="font-family:Liberation Serif;font-variant:normal;font-weight:normal;font-style:normal;font-size:10px">50</text>
<text x="364.14" y="-16.541" transform="scale(1, -1)"
	style="font-family:Liberation Serif;font-variant:normal;font-weight:normal;font-style:normal;font-size:10px">90</text>
<path d="M73.066,24.363L73.066,32.363" style="fill:none;stroke:#000000;stroke-width:0.5" />
<path d="M221.1,24.363L221.1,32.363" style="fill:none;stroke:#000000;stroke-width:0.5" />
<path d="M369.14,24.363L369.14,32.363" style="fill:none;stroke:#000000;stroke-width:0.5" />
<path d="M110.08,28.363L110.08,32.363" style="fill:none;stroke:#000000;stroke-width:0.5" />
<path d="M147.08,28.363L147.08,32.363" style="fill:none;stroke:#000000;stroke-width:0.5" />
<path d="M184.09,28.363L184.09,32.363" style="fill:none;stroke:#000000;stroke-width:0.5" />
<path d="M258.11,28.363L258.11,32.363" style="fill:none;stroke:#000000;stroke-width:0.5" />
<path d="M295.12,28.363L295.12,32.363" style="fill:none;stroke:#000000;stroke-width:0.5" />
<path d="M332.13,28.363L332.13,32.363" style="fill:none;stroke:#000000;stroke-width:0.5" />
<path d="M45.135,32.363L397,32.363" style="fill:none;stroke:#000000;stroke-width:0.5" />
<g transform="rotate(90)">
<text x="215.77" y="9.3867" transform="scale(1, -1)"
	style="font-family:Liberation Serif;font-variant:normal;font-weight:normal;font-style:normal;font-size:12px">Y</text>
</g>
<text x="15.885" y="-62.966" transform="scale(1, -1)"
	style="font-family:Liberation Serif;font-variant:normal;font-weight:normal;font-style:normal;font-size:10px">10</text>
<text x="15.885" y="-212.09" transform="scale(1, -1)"
	style="font-family:Liberation Serif;font-variant:normal;font-weight:normal;font-style:normal;font-size:10px">50</text>
<text x="15.885" y="-361.22" transform="scale(1, -1)"
	style="font-family:Liberation Serif;font-variant:normal;font-weight:normal;font-style:normal;font-size:10px">90</text>
<path d="M28.385,65.252L36.385,65.252" style="fill:none;stroke:#000000;stroke-width:0.5" />
<path d="M28.385,214.38L36.385,214.38" style="fill:none;stroke:#000000;stroke-width:0.5" />
<path d="M28.385,363.5L36.385,363.5" style="fill:none;stroke:#000000;stroke-width:0.5" />
<path d="M32.385,102.53L36.385,102.53" style="fill:none;stroke:#000000;stroke-width:0.5" />
<path d="M32.385,139.81L36.385,139.81" style="fill:none;stroke:#000000;stroke-width:0.5" />
<path d="M32.385,177.1L36.385,177.1" style="fill:none;stroke:#000000;stroke-width:0.5" />
<path d="M32.385,251.66L36.385,251.66" style="fill:none;stroke:#000000;stroke-width:0.5" />
<path d="M32.385,288.94L36.385,288.94" style="fill:none;stroke:#000000;stroke-width:0.5" />
<path d="M32.385,326.22L36.385,326.22" style="fill:none;stroke:#000000;stroke-width:0.5" />
<path d="M36.385,43.209L36.385,397" style="fill:none;stroke:#000000;stroke-width:0.5" />
<path d="M73.066,43.209L73.066,397" style="fill:none;stroke:#808080;stroke-width:0.25" />
<path d="M221.1,43.209L221.1,397" style="fill:none;stroke:#808080;stroke-width:0.25" />
<path d="M369.14,43.209L369.14,397" style="fill:none;stroke:#808080;stroke-width:0.25" />
<path d="M45.135,65.252L397,65.252" style="fill:none;stroke:#808080;stroke-width:0.25" />
<path d="M45.135,214.38L397,214.38" style="fill:none;stroke:#808080;stroke-width:0.25" />
<path d="M45.135,363.5L397,363.5" style="fill:none;stroke:#808080;stroke-width:0.25" />
<path d="M224.1,214.38A3,3 0 1 1 218.1,214.38A3,3 0 1 1 224.1,214.38Z" style="fill:none;stroke:#FF0080;stroke-width:0.5" />
<path d="M277.11,80.799A3,3 0 1 1 271.11,80.799A3,3 0 1 1 277.11,80.799Z" style="fill:none;stroke:#FF0080;stroke-width:0.5" />
<path d="M149.07,100.68A3,3 0 1 1 143.07,100.68A3,3 0 1 1 149.07,100.68Z" style="fill:none;stroke:#FF0080;stroke-width:0.5" />
<path d="M137.74,169.66A3,3 0 1 1 131.74,169.66A3,3 0 1 1 137.74,169.66Z" style="fill:none;stroke:#FF0080;stroke-width:0.5" />
<path d="M48.135,384.12A3,3 0 1 1 42.135,384.12A3,3 0 1 1 48.135,384.12Z" style="fill:none;stroke:#FF0080;stroke-width:0.5" />
<path d="M341.54,221.39A3,3 0 1 1 335.54,221.39A3,3 0 1 1 341.54,221.39Z" style="fill:none;stroke:#FF0080;stroke-width:0.5" />
<path d="M191.15,294.78A3,3 0 1 1 185.15,294.78A3,3 0 1 1 191.15,294.78Z" style="fill:none;stroke:#FF0080;stroke-width:0.5" />
<path d="M302.95,168.73A3,3 0 1 1 296.95,168.73A3,3 0 1 1 302.95,168.73Z" style="fill:none;stroke:#FF0080;stroke-width:0.5" />
<path d="M71.324,397A3,3 0 1 1 65.324,397A3,3 0 1 1 71.324,397Z" style="fill:none;stroke:#FF0080;stroke-width:0.5" />
<path d="M99.912,133.14A3,3 0 1 1 93.912,133.14A3,3 0 1 1 99.912,133.14Z" style="fill:none;stroke:#FF0080;stroke-width:0.5" />
<path d="M212.4,145.33A3,3 0 1 1 206.4,145.33A3,3 0 1 1 212.4,145.33Z" style="fill:none;stroke:#FF0080;stroke-width:0.5" />
<path d="M326.7,43.209A3,3 0 1 1 320.7,43.209A3,3 0 1 1 326.7,43.209Z" style="fill:none;stroke:#FF0080;stroke-width:0.5" />
<path d="M146.42,153.77A3,3 0 1 1 140.42,153.77A3,3 0 1 1 146.42,153.77Z" style="fill:none;stroke:#FF0080;stroke-width:0.5" />
<path d="M304.64,316.98A3,3 0 1 1 298.64,316.98A3,3 0 1 1 304.64,316.98Z" style="fill:none;stroke:#FF0080;stroke-width:0.5" />
<path d="M229.99,50.877A3,3 0 1 1 223.99,50.877A3,3 0 1 1 229.99,50.877Z" style="fill:none;stroke:#FF0080;stroke-width:0.5" />
<path d="M356.07,287.7A3,3 0 1 1 350.07,287.7A3,3 0 1 1 356.07,287.7Z" style="fill:none;stroke:#FF0080;stroke-width:0.5" />
<path d="M165.19,195.3A3,3 0 1 1 159.19,195.3A3,3 0 1 1 165.19,195.3Z" style="fill:none;stroke:#FF0080;stroke-width:0.5" />
<path d="M249.59,57.266A3,3 0 1 1 243.59,57.266A3,3 0 1 1 249.59,57.266Z" style="fill:none;stroke:#FF0080;stroke-width:0.5" />
<path d="M291.62,75.063A3,3 0 1 1 285.62,75.063A3,3 0 1 1 291.62,75.063Z" style="fill:none;stroke:#FF0080;stroke-width:0.5" />
<path d="M190.94,85.596A3,3 0 1 1 184.94,85.596A3,3 0 1 1 190.94,85.596Z" style="fill:none;stroke:#FF0080;stroke-width:0.5" />
<path d="M371.67,292.88A3,3 0 1 1 365.67,292.88A3,3 0 1 1 371.67,292.88Z" style="fill:none;stroke:#FF0080;stroke-width:0.5" />
<path d="M204.69,133.1A3,3 0 1 1 198.69,133.1A3,3 0 1 1 204.69,133.1Z" style="fill:none;stroke:#FF0080;stroke-width:0.5" />
<path d="M335.24,94.912A3,3 0 1 1 329.24,94.912A3,3 0 1 1 335.24,94.912Z" style="fill:none;stroke:#FF0080;stroke-width:0.5" />
<path d="M316.02,354.44A3,3 0 1 1 310.02,354.44A3,3 0 1 1 316.02,354.44Z" style="fill:none;stroke:#FF0080;stroke-width:0.5" />
<path d="M383.3,54.076A3,3 0 1 1 377.3,54.076A3,3 0 1 1 383.3,54.076Z" style="fill:none;stroke:#FF0080;stroke-width:0.5" />
<path d="M182.77,79.968A3,3 0 1 1 176.77,79.968A3,3 0 1 1 182.77,79.968Z" style="fill:none;stroke:#FF0080;stroke-width:0.5" />
<path d="M240.51,370.74A3,3 0 1 1 234.51,370.74A3,3 0 1 1 240.51,370.74Z" style="fill:none;stroke:#FF0080;stroke-width:0.5" />
<path d="M332.74,216.5A3,3 0 1 1 326.74,216.5A3,3 0 1 1 332.74,216.5Z" style="fill:none;stroke:#FF0080;stroke-width:0.5" />
<path d="M251.3,288.35A3,3 0 1 1 245.3,288.35A3,3 0 1 1 251.3,288.35Z" style="fill:none;stroke:#FF0080;stroke-width:0.5" />
<path d="M90.344,148.98A3,3 0 1 1 84.344,148.98A3,3 0 1 1 90.344,148.98Z" style="fill:none;stroke:#FF0080;stroke-width:0.5" />
<path d="M379.15,383.5A3,3 0 1 1 373.15,383.5A3,3 0 1 1 379.15,383.5Z" style="fill:none;stroke:#FF0080;stroke-width:0.5" />
<path d="M395.6,187.62A3,3 0 1 1 389.6,187.62A3,3 0 1 1 395.6,187.62Z" style="fill:none;stroke:#FF0080;stroke-width:0.5" />
<path d="M364.35,334.89A3,3 0 1 1 358.35,334.89A3,3 0 1 1 364.35,334.89Z" style="fill:none;stroke:#FF0080;stroke-width:0.5" />
<path d="M346.59,280.63A3,3 0 1 1 340.59,280.63A3,3 0 1 1 346.59,280.63Z" style="fill:none;stroke:#FF0080;stroke-width:0.5" />
<path d="M384.74,165.71A3,3 0 1 1 378.74,165.71A3,3 0 1 1 384.74,165.71Z" style="fill:none;stroke:#FF0080;stroke-width:0.5" />
<path d="M400,114.12A3,3 0 1 1 394,114.12A3,3 0 1 1 400,114.12Z" style="fill:none;stroke:#FF0080;stroke-width:0.5" />
<path d="M303.73,382.45A3,3 0 1 1 297.73,382.45A3,3 0 1 1 303.73,382.45Z" style="fill:none;stroke:#FF0080;stroke-width:0.5" />
<path d="M174.79,127.46A3,3 0 1 1 168.79,127.46A3,3 0 1 1 174.79,127.46Z" style="fill:none;stroke:#FF0080;stroke-width:0.5" />
<path d="M283.22,309.23A3,3 0 1 1 277.22,309.23A3,3 0 1 1 283.22,309.23Z" style="fill:none;stroke:#FF0080;stroke-width:0.5" />
<path d="M132.48,268.11A3,3 0 1 1 126.48,268.11A3,3 0 1 1 132.48,268.11Z" style="fill:none;stroke:#FF0080;stroke-width:0.5" />
<path d="M372.91,361.67A3,3 0 1 1 366.91,361.67A3,3 0 1 1 372.91,361.67Z" style="fill:none;stroke:#FF0080;stroke-width:0.5" />
<path d="M221.1,214.38L209.4,145.33" style="fill:none;stroke:#0000FF" />
<path d="M209.4,145.33L201.69,133.1" style="fill:none;stroke:#0000FF" />
<path d="M201.69,133.1L171.79,127.46" style="fill:none;stroke:#0000FF" />
<path d="M171.79,127.46L143.42,153.77" style="fill:none;stroke:#0000FF" />
<path d="M143.42,153.77L134.74,169.66" style="fill:none;stroke:#0000FF" />
<path d="M134.74,169.66L87.344,148.98" style="fill:none;stroke:#0000FF" />
<path d="M87.344,148.98L96.912,133.14" style="fill:none;stroke:#0000FF" />
<path d="M96.912,133.14L146.07,100.68" style="fill:none;stroke:#0000FF" />
<path d="M146.07,100.68L179.77,79.968" style="fill:none;stroke:#0000FF" />
<path d="M179.77,79.968L187.94,85.596" style="fill:none;stroke:#0000FF" />
<path d="M187.94,85.596L226.99,50.877" style="fill:none;stroke:#0000FF" />
<path d="M226.99,50.877L246.59,57.266" style="fill:none;stroke:#0000FF" />
<path d="M246.59,57.266L274.11,80.799" style="fill:none;stroke:#0000FF" />
<path d="M274.11,80.799L288.62,75.063" style="fill:none;stroke:#0000FF" />
<path d="M288.62,75.063L332.24,94.912" style="fill:none;stroke:#0000FF" />
<path d="M332.24,94.912L323.7,43.209" style="fill:none;stroke:#0000FF" />
<path d="M323.7,43.209L380.3,54.076" style="fill:none;stroke:#0000FF" />
<path d="M380.3,54.076L397,114.12" style="fill:none;stroke:#0000FF" />
<path d="M397,114.12L381.74,165.71" style="fill:none;stroke:#0000FF" />
<path d="M381.74,165.71L392.6,187.62" style="fill:none;stroke:#0000FF" />
<path d="M392.6,187.62L299.95,168.73" style="fill:none;stroke:#0000FF" />
<path d="M299.95,168.73L329.74,216.5" style="fill:none;stroke:#0000FF" />
<path d="M329.74,216.5L338.54,221.39" style="fill:none;stroke:#0000FF" />
<path d="M338.54,221.39L343.59,280.63" style="fill:none;stroke:#0000FF" />
<path d="M343.59,280.63L353.07,287.7" style="fill:none;stroke:#0000FF" />
<path d="M353.07,287.7L368.67,292.88" style="fill:none;stroke:#0000FF" />
<path d="M368.67,292.88L361.35,334.89" style="fill:none;stroke:#0000FF" />
<path d="M361.35,334.89L369.91,361.67" style="fill:none;stroke:#0000FF" />
<path d="M369.91,361.67L376.15,383.5" style="fill:none;stroke:#0000FF" />
<path d="M376.15,383.5L313.02,354.44" style="fill:none;stroke:#0000FF" />
<path d="M313.02,354.44L300.73,382.45" style="fill:none;stroke:#0000FF" />
<path d="M300.73,382.45L237.51,370.74" style="fill:none;stroke:#0000FF" />
<path d="M237.51,370.74L301.64,316.98" style="fill:none;stroke:#0000FF" />
<path d="M301.64,316.98L280.22,309.23" style="fill:none;stroke:#0000FF" />
<path d="M280.22,309.23L248.3,288.35" style="fill:none;stroke:#0000FF" />
<path d="M248.3,288.35L188.15,294.78" style="fill:none;stroke:#0000FF" />
<path d="M188.15,294.78L68.324,397" style="fill:none;stroke:#0000FF" />
<path d="M68.324,397L45.135,384.12" style="fill:none;stroke:#0000FF" />
<path d="M45.135,384.12L129.48,268.11" style="fill:none;stroke:#0000FF" />
<path d="M129.48,268.11L162.19,195.3" style="fill:none;stroke:#0000FF" />
<path d="M162.19,195.3L221.1,214.38" style="fill:none;stroke:#0000FF" />
</g>
</svg>
