<?xml version="1.0"?>
<!-- Generated by SVGo and Plotinum VG -->
<svg width="400pt" height="400pt" viewBox="0 0 400 400"
	xmlns="http://www.w3.org/2000/svg"
	xmlns:xlink="http://www.w3.org/1999/xlink">
<g transform="scale(1, -1) translate(0, -400)">
<path d="M0,0L400,0L400,400L0,400Z" style="fill:#FFFFFF" />
<text x="216.73" y="-3.9023" transform="scale(1, -1)"
	style="font-family:Liberation Serif;font-variant:normal;font-weight:normal;font-style:normal;font-size:12px">X</text>
<text x="71.392" y="-16.541" transform="scale(1, -1)"
	style="font-family:Liberation Serif;font-variant:normal;font-weight:normal;font-style:normal;font-size:10px">10</text>
<text x="222.25" y="-16.541" transform="scale(1, -1)"
	style="font-family:Liberation Serif;font-variant:normal;font-weight:normal;font-style:normal;font-size:10px">50</text>
<text x="373.1" y="-16.541" transform="scale(1, -1)"
	style="font-family:Liberation Serif;font-variant:normal;font-weight:normal;font-style:normal;font-size:10px">90</text>
<path d="M76.392,24.363L76.392,32.363" style="fill:none;stroke:#000000;stroke-width:0.5" />
<path d="M227.25,24.363L227.25,32.363" style="fill:none;stroke:#000000;stroke-width:0.5" />
<path d="M378.1,24.363L378.1,32.363" style="fill:none;stroke:#000000;stroke-width:0.5" />
<path d="M114.11,28.363L114.11,32.363" style="fill:none;stroke:#000000;stroke-width:0.5" />
<path d="M151.82,28.363L151.82,32.363" style="fill:none;stroke:#000000;stroke-width:0.5" />
<path d="M189.53,28.363L189.53,32.363" style="fill:none;stroke:#000000;stroke-width:0.5" />
<path d="M264.96,28.363L264.96,32.363" style="fill:none;stroke:#000000;stroke-width:0.5" />
<path d="M302.67,28.363L302.67,32.363" style="fill:none;stroke:#000000;stroke-width:0.5" />
<path d="M340.39,28.363L340.39,32.363" style="fill:none;stroke:#000000;stroke-width:0.5" />
<path d="M45.135,32.363L397,32.363" style="fill:none;stroke:#000000;stroke-width:0.5" />
<g transform="rotate(90)">
<text x="215.77" y="9.3867" transform="scale(1, -1)"
	style="font-family:Liberation Serif;font-variant:normal;font-weight:normal;font-style:normal;font-size:12px">Y</text>
</g>
<text x="15.885" y="-96.504" transform="scale(1, -1)"
	style="font-family:Liberation Serif;font-variant:normal;font-weight:normal;font-style:normal;font-size:10px">30</text>
<text x="15.885" y="-235.1" transform="scale(1, -1)"
	style="font-family:Liberation Serif;font-variant:normal;font-weight:normal;font-style:normal;font-size:10px">60</text>
<text x="15.885" y="-373.7" transform="scale(1, -1)"
	style="font-family:Liberation Serif;font-variant:normal;font-weight:normal;font-style:normal;font-size:10px">90</text>
<path d="M28.385,98.789L36.385,98.789" style="fill:none;stroke:#000000;stroke-width:0.5" />
<path d="M28.385,237.39L36.385,237.39" style="fill:none;stroke:#000000;stroke-width:0.5" />
<path d="M28.385,375.99L36.385,375.99" style="fill:none;stroke:#000000;stroke-width:0.5" />
<path d="M32.385,52.589L36.385,52.589" style="fill:none;stroke:#000000;stroke-width:0.5" />
<path d="M32.385,144.99L36.385,144.99" style="fill:none;stroke:#000000;stroke-width:0.5" />
<path d="M32.385,191.19L36.385,191.19" style="fill:none;stroke:#000000;stroke-width:0.5" />
<path d="M32.385,283.59L36.385,283.59" style="fill:none;stroke:#000000;stroke-width:0.5" />
<path d="M32.385,329.79L36.385,329.79" style="fill:none;stroke:#000000;stroke-width:0.5" />
<path d="M36.385,43.209L36.385,397" style="fill:none;stroke:#000000;stroke-width:0.5" />
<path d="M76.392,43.209L76.392,397" style="fill:none;stroke:#808080;stroke-width:0.25" />
<path d="M227.25,43.209L227.25,397" style="fill:none;stroke:#808080;stroke-width:0.25" />
<path d="M378.1,43.209L378.1,397" style="fill:none;stroke:#808080;stroke-width:0.25" />
<path d="M45.135,98.789L397,98.789" style="fill:none;stroke:#808080;stroke-width:0.25" />
<path d="M45.135,237.39L397,237.39" style="fill:none;stroke:#808080;stroke-width:0.25" />
<path d="M45.135,375.99L397,375.99" style="fill:none;stroke:#808080;stroke-width:0.25" />
<path d="M230.25,191.19A3,3 0 1 1 224.25,191.19A3,3 0 1 1 230.25,191.19Z" style="fill:none;stroke:#FF0080;stroke-width:0.5" />
<path d="M340.29,147.51A3,3 0 1 1 334.29,147.51A3,3 0 1 1 340.29,147.51Z" style="fill:none;stroke:#FF0080;stroke-width:0.5" />
<path d="M304.77,241.33A3,3 0 1 1 298.77,241.33A3,3 0 1 1 304.77,241.33Z" style="fill:none;stroke:#FF0080;stroke-width:0.5" />
<path d="M275.67,93.769A3,3 0 1 1 269.67,93.769A3,3 0 1 1 275.67,93.769Z" style="fill:none;stroke:#FF0080;stroke-width:0.5" />
<path d="M265.37,397A3,3 0 1 1 259.37,397A3,3 0 1 1 265.37,397Z" style="fill:none;stroke:#FF0080;stroke-width:0.5" />
<path d="M129.67,326.22A3,3 0 1 1 123.67,326.22A3,3 0 1 1 129.67,326.22Z" style="fill:none;stroke:#FF0080;stroke-width:0.5" />
<path d="M202.74,43.209A3,3 0 1 1 196.74,43.209A3,3 0 1 1 202.74,43.209Z" style="fill:none;stroke:#FF0080;stroke-width:0.5" />
<path d="M340.78,264.94A3,3 0 1 1 334.78,264.94A3,3 0 1 1 340.78,264.94Z" style="fill:none;stroke:#FF0080;stroke-width:0.5" />
<path d="M244.46,289.56A3,3 0 1 1 238.46,289.56A3,3 0 1 1 244.46,289.56Z" style="fill:none;stroke:#FF0080;stroke-width:0.5" />
<path d="M383.33,362.58A3,3 0 1 1 377.33,362.58A3,3 0 1 1 383.33,362.58Z" style="fill:none;stroke:#FF0080;stroke-width:0.5" />
<path d="M400,214.22A3,3 0 1 1 394,214.22A3,3 0 1 1 400,214.22Z" style="fill:none;stroke:#FF0080;stroke-width:0.5" />
<path d="M287.46,277.93A3,3 0 1 1 281.46,277.93A3,3 0 1 1 287.46,277.93Z" style="fill:none;stroke:#FF0080;stroke-width:0.5" />
<path d="M48.135,303.95A3,3 0 1 1 42.135,303.95A3,3 0 1 1 48.135,303.95Z" style="fill:none;stroke:#FF0080;stroke-width:0.5" />
<path d="M78.204,380.73A3,3 0 1 1 72.204,380.73A3,3 0 1 1 78.204,380.73Z" style="fill:none;stroke:#FF0080;stroke-width:0.5" />
<path d="M351.28,252.86A3,3 0 1 1 345.28,252.86A3,3 0 1 1 351.28,252.86Z" style="fill:none;stroke:#FF0080;stroke-width:0.5" />
<path d="M120.12,286.3A3,3 0 1 1 114.12,286.3A3,3 0 1 1 120.12,286.3Z" style="fill:none;stroke:#FF0080;stroke-width:0.5" />
<path d="M185.38,268.14A3,3 0 1 1 179.38,268.14A3,3 0 1 1 185.38,268.14Z" style="fill:none;stroke:#FF0080;stroke-width:0.5" />
<path d="M216.32,360.13A3,3 0 1 1 210.32,360.13A3,3 0 1 1 216.32,360.13Z" style="fill:none;stroke:#FF0080;stroke-width:0.5" />
<path d="M142.07,261.88A3,3 0 1 1 136.07,261.88A3,3 0 1 1 142.07,261.88Z" style="fill:none;stroke:#FF0080;stroke-width:0.5" />
<path d="M156.05,197.07A3,3 0 1 1 150.05,197.07A3,3 0 1 1 156.05,197.07Z" style="fill:none;stroke:#FF0080;stroke-width:0.5" />
<path d="M85.802,123.17A3,3 0 1 1 79.802,123.17A3,3 0 1 1 85.802,123.17Z" style="fill:none;stroke:#FF0080;stroke-width:0.5" />
<path d="M227.25,191.19L348.28,252.86" style="fill:none;stroke:#0000FF" />
<path d="M348.28,252.86L337.78,264.94" style="fill:none;stroke:#0000FF" />
<path d="M337.78,264.94L301.77,241.33" style="fill:none;stroke:#0000FF" />
<path d="M301.77,241.33L153.05,197.07" style="fill:none;stroke:#0000FF" />
<path d="M153.05,197.07L82.802,123.17" style="fill:none;stroke:#0000FF" />
<path d="M82.802,123.17L139.07,261.88" style="fill:none;stroke:#0000FF" />
<path d="M139.07,261.88L182.38,268.14" style="fill:none;stroke:#0000FF" />
<path d="M182.38,268.14L117.12,286.3" style="fill:none;stroke:#0000FF" />
<path d="M117.12,286.3L45.135,303.95" style="fill:none;stroke:#0000FF" />
<path d="M45.135,303.95L75.204,380.73" style="fill:none;stroke:#0000FF" />
<path d="M75.204,380.73L126.67,326.22" style="fill:none;stroke:#0000FF" />
<path d="M126.67,326.22L213.32,360.13" style="fill:none;stroke:#0000FF" />
<path d="M213.32,360.13L262.37,397" style="fill:none;stroke:#0000FF" />
<path d="M262.37,397L241.46,289.56" style="fill:none;stroke:#0000FF" />
<path d="M241.46,289.56L284.46,277.93" style="fill:none;stroke:#0000FF" />
<path d="M284.46,277.93L380.33,362.58" style="fill:none;stroke:#0000FF" />
<path d="M380.33,362.58L397,214.22" style="fill:none;stroke:#0000FF" />
<path d="M397,214.22L337.29,147.51" style="fill:none;stroke:#0000FF" />
<path d="M337.29,147.51L199.74,43.209" style="fill:none;stroke:#0000FF" />
<path d="M199.74,43.209L272.67,93.769" style="fill:none;stroke:#0000FF" />
<path d="M272.67,93.769L227.25,191.19" style="fill:none;stroke:#0000FF" />
</g>
</svg>
